<?xml version="1.0" encoding="UTF-8"?>
<svg xmlns="http://www.w3.org/2000/svg" version="1.1" viewBox="0 0 258 58.8">
  <defs>
    <style>
      .cls-1 {
        fill: #fff;
      }
    </style>
  </defs>
  <!-- Generator: Adobe Illustrator 28.6.0, SVG Export Plug-In . SVG Version: 1.2.0 Build 709)  -->
  <g>
    <g id="Layer_1">
      <rect width="64.4" height="52.2" rx="12.3" ry="12.3"/>
      <g id="Layer_1-2" data-name="Layer_1">
        <g>
          <g>
            <path d="M93,19.5c1-.7,2.2-1,3.5-1s1.5.1,2.1.3c.6.2,1.2.5,1.7.9s.8.9,1.1,1.5c.3.6.5,1.2.6,1.9h6.9c-.2-1.7-.6-3.2-1.3-4.5-.7-1.3-1.6-2.4-2.7-3.3-1.1-.9-2.4-1.6-3.8-2.1-1.5-.5-3-.7-4.7-.7-2.5,0-4.8.6-6.8,1.7-2,1.1-3.6,2.8-4.8,4.9-1.2,2.2-1.8,4.8-1.8,7.9s.6,5.7,1.8,7.9c1.2,2.2,2.8,3.8,4.8,4.9s4.3,1.7,6.9,1.7,3.7-.3,5.2-.9c1.5-.6,2.8-1.4,3.8-2.4s1.9-2.1,2.5-3.3,1-2.4,1.1-3.7h-6.9c0,.6-.3,1.2-.6,1.8-.3.5-.7,1-1.2,1.4s-1,.7-1.6.8c-.6.2-1.3.3-2.1.3-1.3,0-2.5-.3-3.5-1-1-.6-1.7-1.6-2.3-2.9-.5-1.3-.8-2.8-.8-4.7s.3-3.3.8-4.6c.5-1.3,1.3-2.2,2.3-2.9h-.2Z"/>
            <path d="M129,20.7c-1.1-.7-2.4-1-3.9-1s-2.9.4-4,1.1-1.9,1.8-2.4,3.1h-.2v-11h-6.5v28.3h6.7v-12.1c0-.8.2-1.5.5-2.1s.7-1,1.3-1.3c.5-.3,1.2-.5,1.9-.5,1.1,0,1.9.3,2.5,1s.9,1.6.9,2.8v12.2h6.7v-13.5c0-1.6-.3-3-.9-4.2-.6-1.2-1.5-2.1-2.6-2.8Z"/>
            <path d="M152.7,21.6c-.8-.6-1.8-1.1-3-1.4s-2.4-.5-3.7-.5-3.5.3-4.9.9c-1.3.6-2.4,1.4-3.2,2.4s-1.2,2.2-1.4,3.5l6.2.2c.1-.7.5-1.2,1-1.6s1.3-.6,2.2-.6,1.5.2,2,.6.7.9.7,1.6h0c0,.5-.2.8-.5,1.1-.3.2-.9.4-1.6.5-.7.1-1.7.2-2.9.4-1.1,0-2.1.3-3,.5-.9.3-1.8.6-2.5,1.2s-1.3,1.2-1.7,2-.6,1.8-.6,3,.3,2.6.9,3.5c.6.9,1.4,1.6,2.5,2.1,1,.5,2.2.7,3.6.7s1.9,0,2.7-.4c.8-.2,1.5-.6,2.1-1.1s1.1-1.1,1.4-1.8h.2v3h6.3v-14.4c0-1.1-.2-2.1-.7-3s-1.1-1.6-2-2.2v-.2ZM148.7,33.7c0,.7-.2,1.3-.5,1.8s-.8.9-1.4,1.2c-.6.3-1.2.4-2,.4s-1.4-.2-1.9-.6c-.5-.4-.8-.9-.8-1.6s.1-.9.4-1.2c.2-.3.6-.6,1-.8s1-.4,1.6-.5c.3,0,.6,0,1-.2.3,0,.7,0,1-.2.3,0,.6-.2.9-.2s.5-.2.7-.3v2.2Z"/>
            <path d="M170.1,36.2h-.8c-.2,0-.7,0-.9-.2-.3,0-.5-.3-.6-.5-.1-.3-.2-.6-.2-1v-9.6h3.8v-5h-3.8v-5.1h-6.7v5.1h-2.8v5h2.8v10.3c0,1.4.3,2.6.9,3.6.6.9,1.5,1.6,2.6,2.1,1.1.4,2.5.6,4.1.6s1.5,0,2.1-.3c.6,0,1-.3,1.4-.3l-1-4.9c-.1,0-.4,0-.7,0h-.2Z"/>
            <polygon points="173.4 18.5 182 18.5 182 41.2 188.7 41.2 188.7 18.5 197.3 18.5 197.3 12.9 173.4 12.9 173.4 18.5"/>
            <polygon points="215.8 30.4 215.5 30.4 208.3 12.9 199.9 12.9 199.9 41.2 206.5 41.2 206.5 23.7 206.8 23.7 213.6 41 217.8 41 224.6 23.8 224.8 23.8 224.8 41.2 231.5 41.2 231.5 12.9 223 12.9 215.8 30.4"/>
            <path d="M257.4,29.9c-.4-.9-.9-1.7-1.7-2.4s-1.6-1.3-2.7-1.8c-1.1-.5-2.3-.9-3.7-1.2l-2.4-.6c-.6-.1-1.2-.3-1.7-.5s-1-.4-1.3-.6c-.4-.2-.6-.5-.8-.8s-.3-.7-.3-1.1.2-1,.5-1.4.7-.7,1.3-.9c.6-.2,1.3-.3,2.2-.3,1.3,0,2.4.3,3.1.8.7.6,1.1,1.4,1.2,2.4h6.5c0-1.8-.5-3.3-1.4-4.6s-2.1-2.4-3.8-3.1c-1.6-.7-3.5-1.1-5.7-1.1s-4.1.4-5.7,1.1c-1.7.7-3,1.8-3.9,3.1-.9,1.3-1.4,2.8-1.4,4.6s.7,3.8,2.1,5.1,3.3,2.2,5.8,2.7l3,.7c1,.2,1.9.5,2.5.8.7.3,1.2.6,1.5,1s.5.8.5,1.4-.2,1.1-.5,1.5-.8.8-1.5,1c-.6.2-1.4.4-2.4.4s-1.9-.2-2.6-.5-1.4-.8-1.8-1.4c-.4-.6-.7-1.4-.7-2.3h-6.5c0,2.2.5,4,1.5,5.5,1,1.4,2.3,2.5,4.1,3.2s3.8,1.1,6.2,1.1,4.4-.3,6-1c1.7-.7,3-1.7,3.8-2.9.9-1.3,1.3-2.8,1.4-4.6,0-1.1-.2-2.2-.6-3.1v-.2Z"/>
          </g>
          <g>
            <path d="M31,48.2s0,0,.1,0c0,0,0,0,0,0,0,0,0,0,0-.1-1.2-2.2-2-4.5-2.4-7,0-.7,0-1.3,0-1.9-.5-.4-.9-.9-1.3-1.4-1-1.4-1.7-2.9-2.2-4.4l-2.7-4.5s0,0,0,0h-5.8c-1.1,0-2.1-.9-2.1-2.2,0-.6.4-1.2.8-1.5-.8,0-1.6,0-2.3,0-3.5,0-7.4.5-10.7-.7-.9-.4-1.7-.9-2.4-1.5v34c0,.8.4,1.5,1.1,1.8.7.3,1.5.3,2.1-.2l2.2-1.6.6-.5,5.5-4.2s0,0,0,0h15c.5-1.9,2-3.7,4.6-3.9Z"/>
            <path class="cls-1" d="M47.7,24h-5.8l-4-6.7c-.4-.6-1.1-1-1.9-1s-1.4.5-1.8,1.1l-6,12.1-2.7-4.5c-.4-.6-1-1-1.8-1h-7c-1.1,0-2.1.9-2.1,2.1s.9,2.1,2.1,2.1h5.8l4,6.7c.4.6,1.1,1,1.9,1s1.4-.5,1.8-1.1l6-12.1,2.7,4.5c.4.6,1,1,1.8,1h7c1.1,0,2.1-.9,2.1-2.1s-.9-2.1-2.1-2.1Z"/>
          </g>
        </g>
      </g>
    </g>
  </g>
</svg>