<?xml version="1.0" encoding="UTF-8"?>
<svg xmlns="http://www.w3.org/2000/svg" version="1.1" viewBox="0 0 64.4 64.7">
  <!-- Generator: Adobe Illustrator 28.6.0, SVG Export Plug-In . SVG Version: 1.2.0 Build 709)  -->
  <g>
    <g id="Layer_1">
      <path d="M11.6,57.9h40.5c6.8,0,12.3-5.5,12.3-12.3v-27.6c0-6.8-5.5-12.3-12.3-12.3H12.3C5.5,5.7,0,11.2,0,18v44.7c0,.8.4,1.5,1.1,1.8.7.3,1.5.3,2.1-.2M47.7,33.9h-7c-.8,0-1.4-.4-1.8-1l-2.7-4.5-6,12.1c-.4.6-1,1.1-1.8,1.1s-1.5-.4-1.9-1l-4-6.7h-5.8c-1.2,0-2.1-.9-2.1-2.1s1-2.1,2.1-2.1h7c.8,0,1.4.4,1.8,1l2.7,4.5,6-12.1c.4-.6,1-1.1,1.8-1.1s1.5.4,1.9,1l4,6.7h5.8c1.2,0,2.1.9,2.1,2.1s-1,2.1-2.1,2.1Z"/>
    </g>
  </g>
</svg>