<?xml version="1.0" encoding="UTF-8"?>
<svg xmlns="http://www.w3.org/2000/svg" version="1.1" viewBox="0 0 258 65.2">
  <!-- Generator: Adobe Illustrator 28.6.0, SVG Export Plug-In . SVG Version: 1.2.0 Build 709)  -->
  <g>
    <g id="Layer_1">
      <g id="Layer_1-2" data-name="Layer_1">
        <g id="Layer_1-2">
          <g id="Layer_1-2-2" data-name="Layer_1-2">
            <g>
              <path d="M93,25.9c1-.7,2.2-1,3.5-1s1.5.1,2.1.3c.6.2,1.2.5,1.7.9s.8.9,1.1,1.5c.3.6.5,1.2.6,1.9h6.9c-.2-1.7-.6-3.2-1.3-4.5-.7-1.3-1.6-2.4-2.7-3.3s-2.4-1.6-3.8-2.1c-1.5-.5-3-.7-4.7-.7-2.5,0-4.8.6-6.8,1.7s-3.6,2.8-4.8,4.9c-1.2,2.2-1.8,4.8-1.8,7.9s.6,5.7,1.8,7.9c1.2,2.2,2.8,3.8,4.8,4.9s4.3,1.7,6.9,1.7,3.7-.3,5.2-.9c1.5-.6,2.8-1.4,3.8-2.4s1.9-2.1,2.5-3.3,1-2.4,1.1-3.7h-6.9c0,.6-.3,1.2-.6,1.8-.3.5-.7,1-1.2,1.4s-1,.7-1.6.8c-.6.2-1.3.3-2.1.3-1.3,0-2.5-.3-3.5-1-1-.6-1.7-1.6-2.3-2.9-.5-1.3-.8-2.8-.8-4.7s.3-3.3.8-4.6c.5-1.3,1.3-2.2,2.3-2.9h-.2Z"/>
              <path d="M129,27.1c-1.1-.7-2.4-1-3.9-1s-2.9.4-4,1.1-1.9,1.8-2.4,3.1h-.2v-11h-6.5v28.3h6.7v-12.1c0-.8.2-1.5.5-2.1s.7-1,1.3-1.3c.5-.3,1.2-.5,1.9-.5,1.1,0,1.9.3,2.5,1s.9,1.6.9,2.8v12.2h6.7v-13.5c0-1.6-.3-3-.9-4.2-.6-1.2-1.5-2.1-2.6-2.8Z"/>
              <path d="M152.7,28c-.8-.6-1.8-1.1-3-1.4s-2.4-.5-3.7-.5-3.5.3-4.9.9c-1.3.6-2.4,1.4-3.2,2.4s-1.2,2.2-1.4,3.5l6.2.2c.1-.7.5-1.2,1-1.6s1.3-.6,2.2-.6,1.5.2,2,.6.7.9.7,1.6h0c0,.5-.2.8-.5,1.1-.3.2-.9.4-1.6.5-.7,0-1.7.2-2.9.4-1.1,0-2.1.3-3,.5-.9.3-1.8.6-2.5,1.2s-1.3,1.2-1.7,2-.6,1.8-.6,3,.3,2.6.9,3.5c.6.9,1.4,1.6,2.5,2.1,1,.5,2.2.7,3.6.7s1.9,0,2.7-.4c.8-.2,1.5-.6,2.1-1.1s1.1-1.1,1.4-1.8h.2v3h6.3v-14.4c0-1.1-.2-2.1-.7-3s-1.1-1.6-2-2.2v-.2h-.1ZM148.7,40.1c0,.7-.2,1.3-.5,1.8s-.8.9-1.4,1.2c-.6.3-1.2.4-2,.4s-1.4-.2-1.9-.6c-.5-.4-.8-.9-.8-1.6s.1-.9.4-1.2c.2-.3.6-.6,1-.8s1-.4,1.6-.5c.3,0,.6,0,1-.2.3,0,.7,0,1-.2.3,0,.6-.2.9-.2s.5-.2.7-.3c0,0,0,2.2,0,2.2Z"/>
              <path d="M170.1,42.6h-.8c-.2,0-.7,0-.9-.2-.3,0-.5-.3-.6-.5-.1-.3-.2-.6-.2-1v-9.6h3.8v-5h-3.8v-5.1h-6.7v5.1h-2.8v5h2.8v10.3c0,1.4.3,2.6.9,3.6.6.9,1.5,1.6,2.6,2.1,1.1.4,2.5.6,4.1.6s1.5,0,2.1-.3c.6,0,1-.3,1.4-.3l-1-4.9h-.9v.2h0Z"/>
              <polygon points="173.4 24.9 182 24.9 182 47.6 188.7 47.6 188.7 24.9 197.3 24.9 197.3 19.3 173.4 19.3 173.4 24.9"/>
              <polygon points="215.8 36.8 215.5 36.8 208.3 19.3 199.9 19.3 199.9 47.6 206.5 47.6 206.5 30.1 206.8 30.1 213.6 47.4 217.8 47.4 224.6 30.2 224.8 30.2 224.8 47.6 231.5 47.6 231.5 19.3 223 19.3 215.8 36.8"/>
              <path d="M257.4,36.3c-.4-.9-.9-1.7-1.7-2.4s-1.6-1.3-2.7-1.8c-1.1-.5-2.3-.9-3.7-1.2l-2.4-.6c-.6-.1-1.2-.3-1.7-.5s-1-.4-1.3-.6c-.4-.2-.6-.5-.8-.8s-.3-.7-.3-1.1.2-1,.5-1.4.7-.7,1.3-.9c.6-.2,1.3-.3,2.2-.3,1.3,0,2.4.3,3.1.8.7.6,1.1,1.4,1.2,2.4h6.5c0-1.8-.5-3.3-1.4-4.6s-2.1-2.4-3.8-3.1c-1.6-.7-3.5-1.1-5.7-1.1s-4.1.4-5.7,1.1c-1.7.7-3,1.8-3.9,3.1-.9,1.3-1.4,2.8-1.4,4.6s.7,3.8,2.1,5.1,3.3,2.2,5.8,2.7l3,.7c1,.2,1.9.5,2.5.8.7.3,1.2.6,1.5,1s.5.8.5,1.4-.2,1.1-.5,1.5-.8.8-1.5,1c-.6.2-1.4.4-2.4.4s-1.9-.2-2.6-.5-1.4-.8-1.8-1.4c-.4-.6-.7-1.4-.7-2.3h-6.5c0,2.2.5,4,1.5,5.5,1,1.4,2.3,2.5,4.1,3.2s3.8,1.1,6.2,1.1,4.4-.3,6-1c1.7-.7,3-1.7,3.8-2.9.9-1.3,1.3-2.8,1.4-4.6,0-1.1-.2-2.2-.6-3.1v-.2h-.1Z"/>
            </g>
          </g>
        </g>
      </g>
      <path d="M52.1,5.9H12.3C5.5,5.9,0,11.4,0,18.2v44.7c0,.8.4,1.5,1.1,1.8.7.3,1.5.3,2.1-.2l2.2-1.6.6-.5,5.5-4.2h15s0,0,0,0h25.6c6.8,0,12.3-5.5,12.3-12.3v-27.6c0-6.8-5.5-12.3-12.3-12.3ZM47.7,34.1h-7c-.8,0-1.4-.4-1.8-1l-2.7-4.5-6,12.1c-.4.6-1,1.1-1.8,1.1s-1.5-.4-1.9-1l-4-6.7h-5.8c-1.2,0-2.1-.9-2.1-2.1s1-2.1,2.1-2.1h7c.8,0,1.4.4,1.8,1l2.7,4.5,6-12.1c.4-.6,1-1.1,1.8-1.1s1.5.4,1.9,1l4,6.7h5.8c1.2,0,2.1.9,2.1,2.1s-1,2.1-2.1,2.1Z"/>
    </g>
  </g>
</svg>