<?xml version="1.0" standalone="no"?>
<!DOCTYPE svg PUBLIC "-//W3C//DTD SVG 20010904//EN"
 "http://www.w3.org/TR/2001/REC-SVG-20010904/DTD/svg10.dtd">
<svg version="1.0" xmlns="http://www.w3.org/2000/svg"
 width="500.000000pt" height="500.000000pt" viewBox="0 0 500.000000 500.000000"
 preserveAspectRatio="xMidYMid meet">
<metadata>
Created by potrace 1.14, written by Peter Selinger 2001-2017
</metadata>
<g transform="translate(0.000000,500.000000) scale(0.100000,-0.100000)"
fill="#000000" stroke="none">
<path d="M463 4745 c-159 -43 -325 -179 -397 -325 -70 -144 -66 -7 -66 -2145
0 -1860 1 -1932 19 -1965 28 -54 74 -80 138 -80 30 0 64 5 76 11 11 7 167 122
346 256 l326 245 560 -6 c308 -3 1105 -8 1770 -12 1194 -5 1211 -5 1288 15
181 47 328 164 406 322 75 152 71 55 71 1684 0 1246 -3 1470 -15 1530 -46 218
-234 413 -452 470 -84 22 -3989 21 -4070 0z m2432 -1312 c15 -10 100 -140 189
-289 l162 -269 256 -5 c292 -6 293 -6 336 -93 32 -64 24 -115 -28 -171 l-39
-41 -340 0 -340 0 -31 30 c-17 17 -75 102 -127 190 -53 88 -102 168 -109 179
-11 16 -40 -37 -252 -460 -132 -264 -250 -489 -263 -501 -52 -48 -122 -55
-184 -20 -34 19 -62 59 -206 297 l-166 275 -262 5 -262 5 -39 41 c-52 56 -60
107 -28 171 44 89 37 88 386 91 199 2 320 -1 344 -8 50 -14 77 -49 193 -243
55 -92 102 -167 105 -167 3 0 114 218 247 483 253 506 257 512 328 527 41 8
98 -3 130 -27z"/>
</g>
</svg>
